<?xml version="1.0" encoding="utf-8"?>
<!-- Generator: Adobe Illustrator 16.0.0, SVG Export Plug-In . SVG Version: 6.00 Build 0)  -->
<!DOCTYPE svg PUBLIC "-//W3C//DTD SVG 1.1//EN" "http://www.w3.org/Graphics/SVG/1.1/DTD/svg11.dtd">
<svg version="1.1" id="Layer_1" xmlns="http://www.w3.org/2000/svg" xmlns:xlink="http://www.w3.org/1999/xlink" x="0px" y="0px"
	 width="231.689px" height="100.518px" viewBox="0 0 231.689 100.518" enable-background="new 0 0 231.689 100.518"
	 xml:space="preserve">
<path fill="#E5E5E5" d="M127.821,17.751c-3.66,2.187-7.438,5.122-11.335,8.804c-3.897,3.685-7.142,7.141-9.731,10.373
	c-2.591,3.232-6.783,9.601-12.582,19.105c-5.799,9.506-11.633,17.192-17.502,23.062c-5.87,5.87-13.248,10.741-22.135,14.614
	c-8.888,3.874-18.061,5.81-27.518,5.81c-8.176,0-14.722-1.461-19.641-4.384S0,88.684,0,84.549c0-1.9,0.582-3.481,1.747-4.741
	c1.164-1.259,2.603-1.889,4.313-1.889c1.426,0,2.638,0.439,3.636,1.319s1.497,2.008,1.497,3.386c0,1.235-0.404,2.258-1.212,3.064
	c-0.81,0.81-1.854,1.212-3.137,1.212c-1.475,0-2.614-0.499-3.423-1.497c-0.617,0.618-0.927,1.213-0.927,1.782
	c0,1.283,0.855,2.983,2.566,5.098s4.622,3.755,8.732,4.919c4.11,1.165,8.614,1.747,13.51,1.747c7.176,0,13.925-1.343,20.245-4.028
	s11.857-6.333,16.61-10.943c4.752-4.608,9.98-10.525,15.684-17.751l7.771-9.767c7.176-9.029,13.675-16.468,19.498-22.313
	c5.82-5.846,12.653-11.523,20.495-17.038c-1.711-3.784-6.095-7.464-13.153-11.038c-7.057-3.571-15.458-5.358-25.2-5.358
	c-11.312,0-22.184,2.256-32.613,6.765C46.207,11.987,37.51,18.028,30.548,25.6c-6.963,7.572-10.443,14.633-10.443,21.185
	c0,4.462,1.996,8.354,5.987,11.678c3.992,3.324,8.53,4.985,13.616,4.985c5.798,0,12.429-1.625,19.891-4.875
	c7.461-3.25,14.28-7.758,20.46-13.522c6.178-5.766,9.268-11.116,9.268-16.051c0-3.227-1.212-5.718-3.636-7.474
	c-2.424-1.755-5.466-2.633-9.125-2.633c-7.795,0-15.815,2.812-24.061,8.43C44.258,32.939,36.5,40.182,30.084,49.617l0,0
	c4.136-7.064,10.658-14.071,19.569-21.019c8.91-6.946,17.833-10.42,26.769-10.42c4.42,0,7.843,1.045,10.267,3.132
	s3.636,4.674,3.636,7.758c0,7.261-4.932,14.973-14.793,23.134c-9.862,8.163-20.733,12.242-32.614,12.242
	c-7.367,0-13.129-1.77-17.288-5.311c-4.158-3.54-6.237-7.592-6.237-12.155c0-6.985,3.624-14.329,10.872-22.027
	c7.246-7.699,15.908-13.782,25.984-18.25C66.322,2.234,77.063,0,88.47,0c9.979,0,18.534,1.734,25.663,5.204
	c7.13,3.47,11.811,7.271,14.045,11.405c6.844-4.941,12.975-8.814,18.393-11.619l0,0l-8.198,5.632
	c-2.424,1.521-5.703,3.707-9.838,6.559c2.376,4.563,3.564,9.436,3.564,14.614c0,6.844-2.044,12.273-6.132,16.29
	s-8.769,6.023-14.044,6.023c-4.516,0-6.771-1.733-6.771-5.203c0-3.279,2.34-6.416,7.021-9.41c4.682-2.994,9.161-4.491,13.438-4.491
	l0,0c-5.115,0.618-9.744,2.792-13.745,5.524c-4.001,2.733-6.002,5.55-6.002,8.448c0,2.329,1.112,3.493,3.341,3.493
	c3.79,0,8.161-2.649,13.113-7.949c4.951-5.299,7.428-10.989,7.428-17.073C129.746,24.024,129.104,20.793,127.821,17.751z"/>
<path fill="#E5E5E5" d="M91.228,85.019L91.228,85.019c2.331-1.996,27.08-20.857,36.502-28.177l0,0L93.317,93.531
	c-0.855,0.854-1.426,1.711-1.711,2.565v0.499c0,0.618,0.236,1.165,0.713,1.64c0.475,0.477,1.069,0.714,1.782,0.714
	c1.521,0,3.671-0.772,6.452-2.317c2.778-1.544,7.639-5.334,14.577-11.371l0.499,0.499c-10.599,9.268-17.751,13.901-21.458,13.901
	c-1.188,0-2.15-0.382-2.887-1.142c-0.738-0.76-1.104-1.782-1.104-3.064c0-1.807,0.606-3.719,1.82-5.739s5.772-6.832,13.675-14.436
	l0,0l-6.715,4.634L91.228,85.019z"/>
<path fill="#D87C7C" d="M142.587,43.735c0,1.842-0.744,3.389-2.231,4.643c-1.49,1.255-3.063,1.883-4.715,1.883
	c-1.158,0-2.151-0.439-2.979-1.317c-0.826-0.879-1.241-1.944-1.241-3.199c0-1.589,0.702-3.095,2.109-4.518
	c1.406-1.421,2.979-2.133,4.716-2.133c1.238,0,2.274,0.461,3.102,1.38C142.173,41.394,142.587,42.48,142.587,43.735z"/>
<path fill="#E5E5E5" d="M115.631,85.761l-0.499-0.499l19.528-15.99l9.381-7.25l0,0l12.082-12.618l6.1-0.143l-11.551,12.761
	l-0.884,0.713l-24.546,26.181c-2.94,3.13-4.708,5.099-5.301,5.904c-0.593,0.808-0.89,1.566-0.89,2.277
	c0,0.713,0.297,1.319,0.892,1.818c0.594,0.499,1.224,0.749,1.89,0.749c3.896,0,11.358-4.8,22.385-14.4l0,0
	c-11.453,9.838-18.631,15.256-22.526,15.256c-1.236,0-2.294-0.511-3.173-1.533c-0.88-1.021-1.318-2.221-1.318-3.6
	c0-3.563,2.375-7.865,7.126-12.903l14.535-15.112l5.181-5.348L115.631,85.761z"/>
<path fill="#E5E5E5" d="M175.799,85.262l0.499,0.499c-1.759,1.664-3.563,2.495-5.418,2.495c-1.521,0-2.306-1.188-3.351-2.281
	c-3.519,3.707-7.771,7.462-11.763,9.98c-3.992,2.52-7.319,3.777-9.98,3.777c-1.379,0-2.543-0.499-3.493-1.497
	c-0.951-0.998-1.426-2.376-1.426-4.135c0-4.039,1.806-7.924,5.418-11.656c3.611-3.729,7.758-6.63,12.439-8.696
	c4.681-2.067,8.399-3.102,11.156-3.102c2.709,0,4.063,1.283,4.063,3.851c0,2.662-2.139,6.486-6.416,11.478
	c0.854,1.046,1.996,1.568,3.422,1.568C172.566,87.543,174.183,86.783,175.799,85.262z M173.232,74.283
	c0-0.902-0.344-1.641-1.031-2.21c-0.688-0.57-1.458-0.855-2.312-0.855c-3.604,0-9.046,3.612-16.323,10.836
	c-7.278,7.225-10.917,12.001-10.917,14.329c0,0.666,0.332,1.271,0.996,1.818s1.422,0.819,2.274,0.819
	c1.991,0,4.849-1.034,8.57-3.101c3.722-2.067,6.994-4.586,9.815-7.558c2.819-2.97,5.014-5.632,6.578-7.983
	C172.449,78.026,173.232,75.994,173.232,74.283z"/>
<path fill="#E5E5E5" d="M175.799,85.262c11.217-9.362,18.845-14.044,22.885-14.044c0.949,0,1.77,0.315,2.459,0.946
	c0.688,0.63,1.033,1.48,1.033,2.554c0,3.155-2.021,6.86-6.06,11.114l0,0c11.168-9.79,19.177-14.4,23.454-14.4
	c3.23,0,4.848,1.358,4.848,4.072c0,1.858-0.653,3.765-1.96,5.719c-1.309,1.954-3.695,4.409-7.165,7.363s-5.621,4.896-6.452,5.826
	c-0.832,0.929-1.246,1.728-1.246,2.394c0,0.524,0.225,0.979,0.677,1.359c0.451,0.381,0.963,0.57,1.533,0.57
	c1.473,0,3.754-0.771,6.844-2.316c3.089-1.544,6.559-3.957,10.408-7.236l4.634-3.921l0,0c-10.219,9.125-17.252,14.188-22.101,14.188
	c-1.046,0-1.948-0.417-2.709-1.25s-1.141-1.87-1.141-3.109c0-1.19,0.296-2.406,0.892-3.646c0.594-1.238,1.259-2.287,1.996-3.146
	c0.735-0.858,2.506-2.479,5.312-4.861l3.278-2.787c3.707-3.146,5.562-5.338,5.562-6.576c0-1.286-0.95-1.931-2.851-1.931
	c-3.517,0-8.408,2.491-14.681,7.471c-6.271,4.979-15.93,12.945-24.244,20.902l0,0l14.5-18.171c3.089-3.097,5.104-8.033,5.104-8.986
	c0-1.047-0.666-1.571-1.996-1.571c-3.755,0-11.192,4.657-22.313,13.973L175.799,85.262z"/>
<path fill="#595858" d="M311.42,89.137c-18.928-1.893-39.817-32.17-40.729-33.333l0.175,0.249
	c0.206,0.263,26.652,29.177,42.762,30.786L311.42,89.137z"/>
<path fill="#595858" d="M292.637,101.024l-3.152-2.354c15.994-1.844,38.815-31.026,48.287-42.615l0,0
	C336.313,57.839,314.562,98.497,292.637,101.024z"/>
<path fill="#595858" d="M308.517,54.899c-3.33-1.109-6.904-6.38-7.302-6.977l-0.603-0.907l0.771-0.77
	c2.44-2.44,5.34-3.679,8.616-3.679c5.407,0,9.874,3.424,10.062,3.568l0.799,0.62l-0.385,0.936
	c-1.998,4.863-6.712,7.487-10.133,7.487C309.688,55.179,309.074,55.085,308.517,54.899z M310.571,43.708
	c-2.192,0-7.765,1.84-9.502,3.27c1.433,1.945,7.517,5.85,9.195,5.895c2.104,0.056,8.563-2.989,10.248-6.025
	C319.106,45.968,313.789,43.708,310.571,43.708z"/>
<path fill="#595858" d="M317.536,84.544c6.258-3.324-2.922-25.855-3.908-30.58l0,0c2.639,12.666,5.896,27.154,2.929,28.73
	L317.536,84.544z"/>
<path fill="#595858" d="M301.325,84.544h1.903c-1.539-2.679,0.536-21.291,4.315-31.24l0,0
	C305.95,57.501,298.604,79.809,301.325,84.544z"/>
<path fill="#D87C7C" d="M331.741,132.418c0,1.392-0.563,2.561-1.688,3.508c-1.127,0.948-2.313,1.423-3.563,1.423
	c-0.875,0-1.626-0.332-2.251-0.996c-0.625-0.663-0.938-1.47-0.938-2.417c0-1.2,0.53-2.338,1.595-3.414
	c1.063-1.073,2.251-1.61,3.563-1.61c0.937,0,1.719,0.348,2.344,1.043C331.428,130.649,331.741,131.47,331.741,132.418z"/>
<path fill="#E5E5E5" d="M142.587,51.471c0,0,5,10.625,19.636,10.741c0,0-8.511-0.116-13.136-1.491S142.587,51.471,142.587,51.471z"
	/>
</svg>
